<svg width="22" height="17" viewBox="0 0 22 17" fill="none" xmlns="http://www.w3.org/2000/svg">
<path d="M18.6244 1.4102C17.1979 0.746519 15.6926 0.272839 14.1461 0.000968226C14.1321 -0.0014239 14.1177 0.000642098 14.1049 0.00688223C14.0921 0.0131224 14.0815 0.0232301 14.0746 0.0358157C13.8807 0.38429 13.6662 0.840095 13.5163 1.19693C11.8493 0.940468 10.1537 0.940468 8.48664 1.19693C8.31946 0.799421 8.13033 0.411768 7.92015 0.0358157C7.9131 0.023368 7.90249 0.0133766 7.88973 0.00715657C7.87697 0.000936491 7.86264 -0.00122086 7.84865 0.000968226C6.30179 0.271385 4.79618 0.74531 3.37032 1.4102C3.35812 1.41492 3.34791 1.42379 3.34145 1.43529C0.489727 5.75498 -0.29264 9.96873 0.0909813 14.1295C0.0923563 14.149 0.104731 14.1686 0.119856 14.1811C1.78046 15.4281 3.63788 16.3802 5.61292 16.9968C5.62687 17.0012 5.64185 17.0011 5.6557 16.9963C5.66955 16.9915 5.68153 16.9824 5.68992 16.9703C6.11342 16.3848 6.49016 15.7674 6.81466 15.1178C6.82142 15.1044 6.82374 15.0892 6.82126 15.0744C6.81878 15.0595 6.81165 15.0459 6.80091 15.0356C6.79381 15.0288 6.78537 15.0235 6.77616 15.0202C6.18376 14.7894 5.61003 14.5121 5.06018 14.1909C5.04482 14.182 5.0334 14.1676 5.02828 14.1504C5.02316 14.1333 5.02474 14.1148 5.03268 14.0989C5.03736 14.0885 5.04443 14.0794 5.0533 14.0724C5.1688 13.9846 5.2843 13.8926 5.3943 13.8006C5.40402 13.7926 5.41568 13.7875 5.42803 13.7858C5.44038 13.7841 5.45296 13.7858 5.46442 13.7908C9.06551 15.4579 12.9636 15.4579 16.5207 13.7908C16.5326 13.7856 16.5456 13.7837 16.5585 13.7855C16.5713 13.7872 16.5834 13.7924 16.5936 13.8006C16.7036 13.8926 16.8191 13.9846 16.9346 14.0724C16.9439 14.0793 16.9514 14.0885 16.9564 14.0991C16.9614 14.1097 16.9638 14.1214 16.9632 14.1331C16.9627 14.1448 16.9593 14.1563 16.9533 14.1663C16.9473 14.1764 16.939 14.1848 16.9291 14.1909C16.3805 14.5151 15.806 14.792 15.2117 15.0188C15.2022 15.0223 15.1936 15.0279 15.1865 15.0351C15.1794 15.0423 15.1739 15.051 15.1704 15.0606C15.1673 15.07 15.166 15.0798 15.1667 15.0897C15.1674 15.0995 15.1701 15.1091 15.1746 15.1178C15.5046 15.766 15.8827 16.3848 16.2979 16.9703C16.3063 16.9824 16.3183 16.9915 16.3322 16.9963C16.346 17.0011 16.361 17.0012 16.3749 16.9968C18.3533 16.3821 20.2137 15.4299 21.8763 14.1811C21.8846 14.1753 21.8915 14.1676 21.8965 14.1587C21.9015 14.1497 21.9044 14.1398 21.9051 14.1295C22.3644 9.31918 21.1365 5.14027 18.6519 1.43668C18.6494 1.43057 18.6457 1.42505 18.6409 1.42049C18.6362 1.41593 18.6306 1.41242 18.6244 1.4102V1.4102ZM7.35228 11.5954C6.26742 11.5954 5.37505 10.5862 5.37505 9.34845C5.37505 8.10928 6.25092 7.10009 7.35228 7.10009C8.46189 7.10009 9.34601 8.11764 9.32951 9.34845C9.32951 10.5862 8.45364 11.5954 7.35228 11.5954ZM14.6617 11.5954C13.5782 11.5954 12.6845 10.5862 12.6845 9.34845C12.6845 8.10928 13.5603 7.10009 14.6617 7.10009C15.7713 7.10009 16.6568 8.11764 16.6389 9.34845C16.6389 10.5862 15.7713 11.5954 14.6617 11.5954Z" fill="white"/>
</svg>
